<svg width="40" height="40" viewBox="0 0 40 40" fill="none" xmlns="http://www.w3.org/2000/svg">
<rect width="40" height="40" rx="10" fill="#7481D7"/>
<path fill-rule="evenodd" clip-rule="evenodd" d="M9 11.5C9 9.567 10.567 8 12.5 8H24.4V9.5V12V13.5H25.9H29.5H31V28.7C31 30.633 29.433 32.2 27.5 32.2H12.5C10.567 32.2 9 30.633 9 28.7V11.5ZM27.5 9.5H25.9V12H29.5V11.5C29.5 10.3954 28.6046 9.5 27.5 9.5ZM16.3501 12.4C16.3501 11.9858 16.0143 11.65 15.6001 11.65C15.1859 11.65 14.8501 11.9858 14.8501 12.4V13.85H13.4001C12.9859 13.85 12.6501 14.1858 12.6501 14.6C12.6501 15.0142 12.9859 15.35 13.4001 15.35H14.8501V16.8C14.8501 17.2142 15.1859 17.55 15.6001 17.55C16.0143 17.55 16.3501 17.2142 16.3501 16.8V15.35H17.8001C18.2143 15.35 18.5501 15.0142 18.5501 14.6C18.5501 14.1858 18.2143 13.85 17.8001 13.85H16.3501V12.4ZM17.686 23.4747C17.9789 23.1818 17.9789 22.7069 17.686 22.414C17.3931 22.1211 16.9182 22.1211 16.6253 22.414L15.5999 23.4394L14.5745 22.414C14.2816 22.1211 13.8067 22.1211 13.5138 22.414C13.2209 22.7069 13.2209 23.1818 13.5138 23.4747L14.5392 24.5001L13.514 25.5253C13.2211 25.8182 13.2211 26.2931 13.514 26.586C13.8069 26.8789 14.2818 26.8789 14.5747 26.586L15.5999 25.5608L16.6251 26.586C16.918 26.8789 17.3929 26.8789 17.6858 26.586C17.9787 26.2931 17.9787 25.8182 17.6858 25.5253L16.6606 24.5001L17.686 23.4747ZM26.2972 23.286C26.5901 22.9931 26.5901 22.5182 26.2972 22.2253C26.0043 21.9324 25.5294 21.9324 25.2365 22.2253L22.1252 25.3366C21.8324 25.6295 21.8324 26.1043 22.1252 26.3972C22.4181 26.6901 22.893 26.6901 23.1859 26.3972L26.2972 23.286ZM23.3 22.3C23.3 22.9075 22.8075 23.4 22.2 23.4C21.5925 23.4 21.1 22.9075 21.1 22.3C21.1 21.6925 21.5925 21.2 22.2 21.2C22.8075 21.2 23.3 21.6925 23.3 22.3ZM26.5999 27.8C27.2074 27.8 27.6999 27.3075 27.6999 26.7C27.6999 26.0925 27.2074 25.6 26.5999 25.6C25.9924 25.6 25.4999 26.0925 25.4999 26.7C25.4999 27.3075 25.9924 27.8 26.5999 27.8Z" fill="white"/>
</svg>
