<svg width="22" height="27" viewBox="0 0 22 27" fill="none" xmlns="http://www.w3.org/2000/svg">
<path opacity="0.4" fill-rule="evenodd" clip-rule="evenodd" d="M13.0032 0H3.5C1.567 0 0 1.567 0 3.5V23.5C0 25.433 1.567 27 3.5 27H17.88C19.813 27 21.38 25.433 21.38 23.5V8.375H13.5032C13.227 8.375 13.0032 8.15114 13.0032 7.875V0ZM21.343 7.375C21.2613 6.9562 21.0469 6.57084 20.7264 6.27907L14.4014 0.521053C14.2797 0.410294 14.1458 0.315848 14.0032 0.239024V7.375H21.343Z" fill="#404040"/>
<path d="M6.75159 18L15.7537 18" stroke="white" stroke-width="1.8" stroke-linecap="round" stroke-linejoin="round"/>
<path d="M11.2527 22.5L11.2527 13.5" stroke="white" stroke-width="1.8" stroke-linecap="round" stroke-linejoin="round"/>
</svg>
