<svg width="24" height="23" viewBox="0 0 24 23" fill="none" xmlns="http://www.w3.org/2000/svg">
<path d="M5.33325 1L5.33325 4.33333" stroke="#595959" stroke-width="2" stroke-linecap="round"/>
<path d="M18.6667 1L18.6667 4.33333" stroke="#595959" stroke-width="2" stroke-linecap="round"/>
<rect x="5.33325" y="11.8333" width="4.16667" height="1.66667" rx="0.2" fill="#595959"/>
<rect x="5.33325" y="16" width="4.16667" height="1.66667" rx="0.2" fill="#595959"/>
<rect x="14.5" y="11.8333" width="4.16667" height="1.66667" rx="0.2" fill="#595959"/>
<rect x="14.5" y="16" width="4.16667" height="1.66667" rx="0.2" fill="#595959"/>
<rect x="2" y="4.33334" width="20" height="16.6667" rx="2" stroke="#595959" stroke-width="2.5"/>
<path d="M2.83325 9.16666C2.83325 7.28105 2.83325 6.33824 3.41904 5.75245C4.00482 5.16666 4.94763 5.16666 6.83325 5.16666H17.1666C19.0522 5.16666 19.995 5.16666 20.5808 5.75245C21.1666 6.33824 21.1666 7.28105 21.1666 9.16666V10.1667H2.83325V9.16666Z" fill="#595959"/>
</svg>
