<svg width="22" height="27" viewBox="0 0 22 27" fill="none" xmlns="http://www.w3.org/2000/svg">
<path opacity="0.4" fill-rule="evenodd" clip-rule="evenodd" d="M13.3832 0H3.88001C1.94701 0 0.380005 1.567 0.380005 3.5V23.5C0.380005 25.433 1.94701 27 3.88 27H18.26C20.193 27 21.76 25.433 21.76 23.5V8.375H13.8832C13.607 8.375 13.3832 8.15114 13.3832 7.875V0ZM21.723 7.375C21.6413 6.9562 21.4269 6.57084 21.1064 6.27907L14.7814 0.521053C14.6597 0.410294 14.5259 0.315848 14.3832 0.239024V7.375H21.723Z" fill="#595959"/>
<path d="M6.9463 20.0749L6.84686 21.9003L8.62745 21.4846L15.2075 13.641L13.5264 12.2314L6.9463 20.0749ZM6.9463 20.0749L8.25692 20.8125L12.1953 15.1875L13.7086 13.641" stroke="white" stroke-width="1.5" stroke-linecap="round" stroke-linejoin="round"/>
<path d="M11.7041 14.4933L13.8983 15.2246" stroke="white" stroke-linecap="round" stroke-linejoin="round"/>
<rect opacity="0.4" width="2.45232" height="2.25022" rx="0.5" transform="matrix(0.766119 0.642699 -0.642876 0.76597 12.6195 13.0401)" fill="#404040"/>
</svg>
