<svg width="46" height="46" viewBox="0 0 46 46" fill="none" xmlns="http://www.w3.org/2000/svg">
<rect width="46" height="46" rx="10" fill="#EBEDF9"/>
<path d="M10.494 29V16.4H13.608L18.198 23.87L15.768 23.852L20.412 16.4H23.418V29H19.98V25.634C19.98 24.554 20.004 23.582 20.052 22.718C20.112 21.854 20.208 20.996 20.34 20.144L20.736 21.206L17.514 26.192H16.326L13.176 21.206L13.572 20.144C13.704 20.948 13.794 21.776 13.842 22.628C13.902 23.468 13.932 24.47 13.932 25.634V29H10.494ZM24.6922 29L29.7142 16.4H32.5942L37.5802 29H34.0342L31.8742 23.15C31.7542 22.826 31.6462 22.526 31.5502 22.25C31.4542 21.974 31.3642 21.704 31.2802 21.44C31.1962 21.176 31.1122 20.906 31.0282 20.63C30.9562 20.354 30.8902 20.054 30.8302 19.73L31.4062 19.712C31.3342 20.06 31.2562 20.372 31.1722 20.648C31.1002 20.924 31.0222 21.188 30.9382 21.44C30.8542 21.692 30.7582 21.956 30.6502 22.232C30.5542 22.508 30.4462 22.814 30.3262 23.15L28.1662 29H24.6922ZM27.1402 26.912L28.2022 24.392H34.0342L35.0242 26.912H27.1402Z" fill="#212121"/>
</svg>
