<svg width="40" height="40" viewBox="0 0 40 40" fill="none" xmlns="http://www.w3.org/2000/svg">
<path d="M12.2593 34.2049V25.9259C12.2593 25.3736 12.707 24.9259 13.2593 24.9259H26.6329C27.6399 24.9259 28.0154 26.2462 27.1593 26.7762L13.7856 35.0551C13.1194 35.4675 12.2593 34.9884 12.2593 34.2049Z" fill="white"/>
<path fill-rule="evenodd" clip-rule="evenodd" d="M11.5 13C9.567 13 8 14.567 8 16.5V28.2407C8 30.1737 9.567 31.7407 11.5 31.7407H27.5C29.433 31.7407 31 30.1737 31 28.2407V16.5C31 14.567 29.433 13 27.5 13H11.5ZM13.537 24.0741C14.7132 24.0741 15.6667 23.1206 15.6667 21.9444C15.6667 20.7683 14.7132 19.8148 13.537 19.8148C12.3609 19.8148 11.4074 20.7683 11.4074 21.9444C11.4074 23.1206 12.3609 24.0741 13.537 24.0741ZM21.6296 21.9444C21.6296 23.1206 20.6762 24.0741 19.5 24.0741C18.3238 24.0741 17.3704 23.1206 17.3704 21.9444C17.3704 20.7683 18.3238 19.8148 19.5 19.8148C20.6762 19.8148 21.6296 20.7683 21.6296 21.9444ZM25.463 24.0741C26.6391 24.0741 27.5926 23.1206 27.5926 21.9444C27.5926 20.7683 26.6391 19.8148 25.463 19.8148C24.2868 19.8148 23.3333 20.7683 23.3333 21.9444C23.3333 23.1206 24.2868 24.0741 25.463 24.0741Z" fill="white"/>
</svg>
