<svg width="38" height="37" viewBox="0 0 38 37" fill="none" xmlns="http://www.w3.org/2000/svg">
<path d="M23.075 25.3923C22.4401 28.6417 20.6075 31.597 11.4478 29.2286C5.65458 28.2895 0.879297 27.035 2.11985 21.2977C2.75477 18.0483 7.96044 16.3307 13.747 17.4614C19.5337 18.5921 23.7099 22.1428 23.075 25.3923Z" fill="#29368E"/>
<path d="M22.2878 16.8798C21.0006 28.9733 28.7769 24.9632 13.1611 19.8523C-2.54102 17.6223 3.58104 24.2194 5.93821 13.6852C6.57635 10.4193 11.2756 7.20533 15.472 8.02529C19.6685 8.84526 22.926 13.6139 22.2878 16.8798Z" fill="#29368E"/>
<path d="M14.4079 33.3499C14.2531 34.7541 12.2227 35.6723 10.3786 35.3119C8.53455 34.9516 6.97783 33.4468 7.14557 32.5884C7.264 30.7587 9.23197 31.3823 11.0761 31.7427C12.9201 32.103 14.5756 32.4915 14.4079 33.3499Z" fill="#29368E"/>
<circle cx="26.4999" cy="11.5" r="11.5" fill="#EF2A2A"/>
<path d="M21.6198 15.412V8.596L22.0638 9.616L20.2638 10.468L19.9158 8.644L22.3038 7.48H23.6238V15.412H21.6198ZM20.0838 16V14.2H25.1958V16H20.0838ZM29.8584 16.12C29.1064 16.12 28.4624 15.948 27.9264 15.604C27.3984 15.26 26.9944 14.768 26.7144 14.128C26.4344 13.48 26.2944 12.704 26.2944 11.8C26.2944 10.896 26.4344 10.124 26.7144 9.484C26.9944 8.836 27.3984 8.34 27.9264 7.996C28.4624 7.652 29.1064 7.48 29.8584 7.48C30.6104 7.48 31.2544 7.652 31.7904 7.996C32.3264 8.34 32.7344 8.836 33.0144 9.484C33.2944 10.124 33.4344 10.896 33.4344 11.8C33.4344 12.704 33.2944 13.48 33.0144 14.128C32.7344 14.768 32.3264 15.26 31.7904 15.604C31.2544 15.948 30.6104 16.12 29.8584 16.12ZM29.8584 14.392C30.3784 14.392 30.7784 14.168 31.0584 13.72C31.3464 13.272 31.4904 12.632 31.4904 11.8C31.4904 10.944 31.3464 10.288 31.0584 9.832C30.7784 9.368 30.3784 9.136 29.8584 9.136C29.3384 9.136 28.9344 9.368 28.6464 9.832C28.3664 10.288 28.2264 10.944 28.2264 11.8C28.2264 12.632 28.3664 13.272 28.6464 13.72C28.9344 14.168 29.3384 14.392 29.8584 14.392Z" fill="white"/>
</svg>
