<svg width="248" height="248" viewBox="0 0 248 248" fill="none" xmlns="http://www.w3.org/2000/svg">
<path d="M202.253 164.328C207.971 153.231 211.263 141.044 211.91 128.577C212.557 116.11 210.545 103.648 206.006 92.0181C201.468 80.3885 194.507 69.8574 185.587 61.1241C176.666 52.3908 165.99 45.6551 154.267 41.3643C142.543 37.0734 130.042 35.3255 117.591 36.2367C105.141 37.1479 93.0264 40.6974 82.0528 46.6493C71.0792 52.6013 61.4974 60.8196 53.9435 70.7586C46.3896 80.6976 41.0364 92.1299 38.2395 104.296L81.1274 114.156C82.5259 108.072 85.2024 102.356 88.9794 97.3868C92.7563 92.4173 97.5472 88.3082 103.034 85.3322C108.521 82.3562 114.578 80.5815 120.803 80.1259C127.028 79.6703 133.279 80.5442 139.141 82.6897C145.003 84.8351 150.341 88.2029 154.801 92.5696C159.261 96.9362 162.741 102.202 165.011 108.017C167.28 113.831 168.286 120.062 167.963 126.296C167.639 132.529 165.993 138.623 163.134 144.171L202.253 164.328Z" fill="#F68989"/>
<path d="M211.509 133.565C212.863 121.155 211.562 108.598 207.692 96.7297C203.822 84.8609 197.471 73.9512 189.062 64.725C180.652 55.4989 170.376 48.1672 158.915 43.217C147.455 38.2668 135.073 35.8112 122.59 36.0132C110.108 36.2153 97.8119 39.0705 86.5178 44.3891C75.2237 49.7078 65.1902 57.3682 57.0836 66.8618C48.977 76.3554 42.9828 87.4649 39.4989 99.4527C36.015 111.441 35.1212 124.032 36.8768 136.392L80.446 130.203C79.5682 124.024 80.0151 117.728 81.7571 111.734C83.499 105.74 86.4961 100.185 90.5494 95.4383C94.6027 90.6915 99.6195 86.8613 105.267 84.202C110.914 81.5426 117.062 80.1151 123.303 80.014C129.544 79.913 135.735 81.1408 141.465 83.6159C147.195 86.091 152.334 89.7568 156.538 94.3699C160.743 98.983 163.919 104.438 165.854 110.372C167.789 116.307 168.439 122.585 167.762 128.79L211.509 133.565Z" fill="#B3FFDF"/>
<path d="M36.7841 135.819C39.4614 155.576 48.767 173.837 63.1772 187.615C77.5874 201.393 96.2484 209.87 116.105 211.658C135.961 213.447 155.837 208.44 172.477 197.459C189.117 186.478 201.536 170.173 207.7 151.213L165.85 137.607C162.768 147.087 156.558 155.239 148.238 160.73C139.918 166.22 129.981 168.723 120.052 167.829C110.124 166.935 100.794 162.696 93.5886 155.808C86.3835 148.919 81.7307 139.788 80.392 129.91L36.7841 135.819Z" fill="#B3DFFF"/>
</svg>
