<svg width="36" height="36" viewBox="0 0 36 36" fill="none" xmlns="http://www.w3.org/2000/svg">
<circle cx="18" cy="18" r="18" fill="#EBEDF9"/>
<path d="M13.782 23.14C12.97 23.14 12.242 23.014 11.598 22.762C10.954 22.51 10.4033 22.1553 9.946 21.698C9.498 21.2407 9.15733 20.6993 8.924 20.074C8.69067 19.4487 8.574 18.772 8.574 18.044C8.574 17.3067 8.7 16.63 8.952 16.014C9.21333 15.3887 9.58667 14.8473 10.072 14.39C10.5573 13.9327 11.1267 13.578 11.78 13.326C12.4427 13.074 13.1753 12.948 13.978 12.948C14.5287 12.948 15.0467 13.018 15.532 13.158C16.0267 13.298 16.47 13.4893 16.862 13.732C17.254 13.9747 17.59 14.2453 17.87 14.544L16.218 16.308C16.0127 16.112 15.7933 15.944 15.56 15.804C15.336 15.664 15.0887 15.552 14.818 15.468C14.5567 15.384 14.2627 15.342 13.936 15.342C13.572 15.342 13.236 15.412 12.928 15.552C12.6293 15.6827 12.368 15.8693 12.144 16.112C11.92 16.3453 11.7427 16.63 11.612 16.966C11.4907 17.2927 11.43 17.652 11.43 18.044C11.43 18.4267 11.4953 18.786 11.626 19.122C11.7567 19.4487 11.9387 19.7333 12.172 19.976C12.4053 20.2187 12.6807 20.41 12.998 20.55C13.3247 20.6807 13.6747 20.746 14.048 20.746C14.3093 20.746 14.552 20.704 14.776 20.62C15 20.536 15.1913 20.424 15.35 20.284C15.518 20.1347 15.6487 19.962 15.742 19.766C15.8353 19.5607 15.882 19.3413 15.882 19.108V18.716L16.246 19.304H13.67V17.288H18.402C18.4113 17.3907 18.4207 17.5493 18.43 17.764C18.4487 17.9693 18.458 18.1747 18.458 18.38C18.4673 18.5853 18.472 18.73 18.472 18.814C18.472 19.4393 18.3553 20.018 18.122 20.55C17.8887 21.082 17.562 21.5393 17.142 21.922C16.722 22.3047 16.2273 22.6033 15.658 22.818C15.0887 23.0327 14.4633 23.14 13.782 23.14ZM20.1952 23V13.2H24.5352C25.1792 13.2 25.7532 13.3447 26.2572 13.634C26.7705 13.914 27.1719 14.3013 27.4612 14.796C27.7599 15.2907 27.9092 15.86 27.9092 16.504C27.9092 17.1667 27.7599 17.7593 27.4612 18.282C27.1719 18.7953 26.7705 19.2013 26.2572 19.5C25.7532 19.7987 25.1792 19.948 24.5352 19.948H22.9672V23H20.1952ZM22.9252 17.554H24.0592C24.2552 17.554 24.4279 17.5167 24.5772 17.442C24.7265 17.358 24.8432 17.2413 24.9272 17.092C25.0205 16.9427 25.0672 16.7607 25.0672 16.546C25.0672 16.3313 25.0205 16.154 24.9272 16.014C24.8432 15.874 24.7265 15.7713 24.5772 15.706C24.4279 15.6313 24.2552 15.594 24.0592 15.594H22.9252V17.554Z" fill="#212121"/>
</svg>
