<svg width="28" height="34" viewBox="0 0 28 34" fill="none" xmlns="http://www.w3.org/2000/svg">
<g opacity="0.4">
<path fill-rule="evenodd" clip-rule="evenodd" d="M12.3936 3.5C12.3936 1.56701 13.9606 0 15.8936 0H24.5C26.433 0 28 1.567 28 3.5V9.35541C28 11.2884 26.433 12.8554 24.5 12.8554H19.9522L16.8141 14.8193C16.1481 15.2361 15.2836 14.7573 15.2836 13.9716V12.8025C13.6414 12.5139 12.3936 11.0804 12.3936 9.35542V3.5ZM19.4206 6.85194L19.8046 8.42394H20.8366L20.9566 7.96794C21.3166 7.86394 21.6446 7.71594 21.9406 7.52394C22.2366 7.33194 22.4926 7.11194 22.7086 6.86394C22.9326 6.60794 23.1046 6.33594 23.2246 6.04794C23.3526 5.75994 23.4166 5.46794 23.4166 5.17194C23.4166 4.70794 23.2926 4.29194 23.0446 3.92394C22.7966 3.54794 22.4606 3.25594 22.0366 3.04794C21.6126 2.83194 21.1366 2.72394 20.6086 2.72394C20.0646 2.72394 19.5406 2.87594 19.0366 3.17994C18.5406 3.48394 18.1126 3.91194 17.7526 4.46394L19.0606 5.67594C19.2846 5.25994 19.5286 4.95994 19.7926 4.77594C20.0566 4.58394 20.3206 4.48794 20.5846 4.48794C20.7686 4.48794 20.9286 4.51994 21.0646 4.58394C21.2006 4.64794 21.3086 4.73994 21.3886 4.85994C21.4686 4.97194 21.5086 5.10794 21.5086 5.26794C21.5086 5.42794 21.4726 5.57994 21.4006 5.72394C21.3286 5.85994 21.2286 5.98794 21.1006 6.10794C20.9806 6.21994 20.8326 6.31994 20.6566 6.40794C20.4806 6.49594 20.2886 6.57994 20.0806 6.65994C19.8726 6.73194 19.6526 6.79594 19.4206 6.85194ZM19.6606 9.58794C19.4686 9.78794 19.3726 10.0479 19.3726 10.3679C19.3726 10.7119 19.4606 10.9759 19.6366 11.1599C19.8206 11.3439 20.0766 11.4359 20.4046 11.4359C20.7166 11.4359 20.9686 11.3359 21.1606 11.1359C21.3526 10.9359 21.4486 10.6799 21.4486 10.3679C21.4486 10.0239 21.3566 9.75994 21.1726 9.57594C20.9886 9.38394 20.7326 9.28794 20.4046 9.28794C20.1006 9.28794 19.8526 9.38794 19.6606 9.58794Z" fill="#595959"/>
<ellipse cx="7.5742" cy="14.5638" rx="4.07823" ry="4.12284" fill="#595959"/>
<path d="M15.1477 27.5213C15.1477 26.6705 14.9518 25.828 14.5712 25.0419C14.1906 24.2559 13.6327 23.5417 12.9294 22.9401C12.2261 22.3385 11.3912 21.8613 10.4723 21.5357C9.55335 21.2101 8.56847 21.0425 7.57386 21.0425C6.57925 21.0425 5.59437 21.2101 4.67547 21.5357C3.75657 21.8613 2.92163 22.3385 2.21833 22.9401C1.51503 23.5417 0.957148 24.2559 0.576526 25.0419C0.195904 25.828 -8.69519e-08 26.6705 0 27.5213L7.57386 27.5213H15.1477Z" fill="#595959"/>
</g>
</svg>
