<svg width="44" height="45" viewBox="0 0 44 45" fill="none" xmlns="http://www.w3.org/2000/svg">
<path fill-rule="evenodd" clip-rule="evenodd" d="M19.3094 11.9286C17.3197 10.4927 14.5416 11.9226 14.5538 14.3762L14.5574 15.1013C14.5642 16.4528 13.6664 17.6419 12.3648 18.0056L11.6665 18.2007C9.30333 18.861 8.68911 21.9245 10.615 23.4448L11.1842 23.8941C12.245 24.7314 12.6149 26.1747 12.0877 27.4191L11.8049 28.0868C10.8478 30.346 12.8599 32.7363 15.2493 32.1784L15.9555 32.0136C17.2715 31.7063 18.6306 32.3169 19.2748 33.505L19.6204 34.1424C20.7901 36.2993 23.9134 36.2165 24.967 34.0006L25.2784 33.3457C25.8587 32.1252 27.1835 31.4433 28.514 31.6804L29.2279 31.8076C31.6435 32.238 33.5261 29.7444 32.4505 27.539L32.1326 26.8873C31.5402 25.6726 31.8331 24.2117 32.848 23.3193L33.3925 22.8405C35.2351 21.2202 34.4593 18.1936 32.0645 17.6595L31.3568 17.5017C30.0377 17.2075 29.0782 16.0677 29.0133 14.7178L28.9784 13.9935C28.8605 11.5427 26.0105 10.2622 24.0998 11.8015L23.5351 12.2564C22.4827 13.1043 20.9933 13.1438 19.8974 12.3529L19.3094 11.9286ZM22 27C24.2091 27 26 25.2091 26 23C26 20.7909 24.2091 19 22 19C19.7908 19 18 20.7909 18 23C18 25.2091 19.7908 27 22 27Z" fill="white"/>
</svg>
