<svg width="44" height="45" viewBox="0 0 44 45" fill="none" xmlns="http://www.w3.org/2000/svg">
<ellipse cx="15.9678" cy="20.5833" rx="4.6129" ry="4.58333" fill="white"/>
<ellipse cx="28.5484" cy="18.9167" rx="2.93548" ry="2.91667" fill="white"/>
<path d="M23.9355 33.9167C23.9355 32.9865 23.7294 32.0654 23.329 31.206C22.9286 30.3466 22.3417 29.5658 21.6018 28.908C20.8619 28.2503 19.9836 27.7285 19.0169 27.3725C18.0502 27.0166 17.0141 26.8333 15.9677 26.8333C14.9214 26.8333 13.8853 27.0166 12.9186 27.3725C11.9519 27.7285 11.0736 28.2503 10.3337 28.908C9.59382 29.5658 9.00692 30.3466 8.60651 31.206C8.20609 32.0654 8 32.9865 8 33.9167L15.9677 33.9167H23.9355Z" fill="white"/>
<path d="M34 28.0833C34 27.4814 33.859 26.8854 33.585 26.3294C33.3111 25.7733 32.9095 25.268 32.4033 24.8424C31.8971 24.4168 31.2961 24.0792 30.6347 23.8489C29.9732 23.6186 29.2643 23.5 28.5484 23.5C27.8325 23.5 27.1236 23.6186 26.4622 23.8489C25.8008 24.0792 25.1998 24.4168 24.6935 24.8424C24.1873 25.268 23.7858 25.7733 23.5118 26.3294C23.2378 26.8854 23.0968 27.4814 23.0968 28.0833L28.5484 28.0833H34Z" fill="white"/>
</svg>
