<svg width="40" height="40" viewBox="0 0 40 40" fill="none" xmlns="http://www.w3.org/2000/svg">
<path d="M8 32L31 32" stroke="white" stroke-width="2" stroke-linecap="round" stroke-linejoin="round"/>
<path fill-rule="evenodd" clip-rule="evenodd" d="M13.5 9C11.567 9 10 10.567 10 12.5V31H29V12.5C29 10.567 27.433 9 25.5 9H13.5ZM22.238 12.381C21.6858 12.381 21.238 12.8287 21.238 13.381C21.238 13.9332 21.6858 14.381 22.238 14.381H24.4285C24.9808 14.381 25.4285 13.9332 25.4285 13.381C25.4285 12.8287 24.9808 12.381 24.4285 12.381H22.238ZM21.238 17.7619C21.238 17.2096 21.6858 16.7619 22.238 16.7619H24.4285C24.9808 16.7619 25.4285 17.2096 25.4285 17.7619C25.4285 18.3142 24.9808 18.7619 24.4285 18.7619H22.238C21.6858 18.7619 21.238 18.3142 21.238 17.7619ZM22.238 21.1429C21.6858 21.1429 21.238 21.5906 21.238 22.1429C21.238 22.6951 21.6858 23.1429 22.238 23.1429H24.4285C24.9808 23.1429 25.4285 22.6951 25.4285 22.1429C25.4285 21.5906 24.9808 21.1429 24.4285 21.1429H22.238ZM13.5715 13.381C13.5715 12.8287 14.0192 12.381 14.5715 12.381H16.762C17.3143 12.381 17.762 12.8287 17.762 13.381C17.762 13.9332 17.3143 14.381 16.762 14.381H14.5715C14.0192 14.381 13.5715 13.9332 13.5715 13.381ZM14.5715 16.7619C14.0192 16.7619 13.5715 17.2096 13.5715 17.7619C13.5715 18.3142 14.0192 18.7619 14.5715 18.7619H16.762C17.3143 18.7619 17.762 18.3142 17.762 17.7619C17.762 17.2096 17.3143 16.7619 16.762 16.7619H14.5715ZM13.5715 22.1429C13.5715 21.5906 14.0192 21.1429 14.5715 21.1429H16.762C17.3143 21.1429 17.762 21.5906 17.762 22.1429C17.762 22.6951 17.3143 23.1429 16.762 23.1429H14.5715C14.0192 23.1429 13.5715 22.6951 13.5715 22.1429ZM18.8572 26.5238C18.3049 26.5238 17.8572 26.9715 17.8572 27.5238V30.9048H21.1429V27.5238C21.1429 26.9715 20.6952 26.5238 20.1429 26.5238H18.8572Z" fill="white"/>
<path d="M24.5 10V6" stroke="white" stroke-width="2.5" stroke-linecap="round" stroke-linejoin="round"/>
</svg>
